<?xml version="1.0" standalone="no"?><svg xmlns="http://www.w3.org/2000/svg" viewBox="0 0 1440 320"><path fill="#e7008a" fill-opacity="1" d="M0,128L24,149.3C48,171,96,213,144,192C192,171,240,85,288,64C336,43,384,85,432,122.7C480,160,528,192,576,170.7C624,149,672,75,720,64C768,53,816,107,864,112C912,117,960,75,1008,58.7C1056,43,1104,53,1152,48C1200,43,1248,21,1296,37.3C1344,53,1392,107,1416,133.3L1440,160L1440,0L1416,0C1392,0,1344,0,1296,0C1248,0,1200,0,1152,0C1104,0,1056,0,1008,0C960,0,912,0,864,0C816,0,768,0,720,0C672,0,624,0,576,0C528,0,480,0,432,0C384,0,336,0,288,0C240,0,192,0,144,0C96,0,48,0,24,0L0,0Z"></path></svg>